:SAMPLES-PER-SECOND 30
:FULLY-SPECIFIED
:DEGREES
462
root  11.895 40.8249 -5.17299 -28.4359 -68.6282 24.717
RightUpLeg  -2.65826 -16.4577 -33.2706
RightLeg  18.8775 -16.6034 -6.49697
RightFoot  35.1216 -7.63896 18.2418
RightToes  -5.28226e-011 1.30204e-014 -6.03759e-014
Spine  28.8534 7.8222 21.9597
Spine1  -5.21208 15.8248 -23.1467
HEad  -3.03996 -44.9979 -2.96779
LeftShoulder1  -0.988814 10.3216 -6.69418
LeftArm  8.48195 22.5189 -62.2847
LeftForeArm  -24.9593 -41.1516 -11.1973
LeftHand  -0.124058 4.91875 31.1254
RightShoulder  2.11223 5.28698 17.4574
RightArm  -20.444 -43.0351 24.457
RightForeArm  -32.7436 12.8834 6.44738
RightHand  -1.39342 0.764399 -26.0592
LeftUpLeg  -26.1294 14.586 19.9356
LeftLeg  27.0518 -2.74085 -1.20971
LeftFoot  27.2268 10.692 -30.4404
LeftToes  -2.75829e-010 5.07641e-011 -5.51782e-011
463
root  12.0861 40.4183 -5.39837 -33.6315 -70.6666 31.8886
RightUpLeg  -8.56921 -15.75 -32.133
RightLeg  23.4942 -20.4939 -9.6738
RightFoot  33.9349 -7.89065 19.3842
RightToes  -5.28226e-011 1.30204e-014 -6.03759e-014
Spine  29.8775 8.1296 21.7216
Spine1  -7.90342 16.0522 -26.3855
HEad  -2.23605 -44.4445 -2.90153
LeftShoulder1  -0.87783 9.72071 -6.2827
LeftArm  5.04726 20.4304 -62.782
LeftForeArm  -27.6747 -36.0202 -9.5508
LeftHand  0.0729391 5.63343 31.4585
RightShoulder  1.70264 3.90864 16.3332
RightArm  -21.2086 -40.4508 24.4353
RightForeArm  -35.9409 13.4838 6.18364
RightHand  -1.46084 0.92564 -26.6005
LeftUpLeg  -22.7472 15.9154 19.8246
LeftLeg  21.5088 -2.14413 -0.612536
LeftFoot  27.5898 12.4375 -34.7929
LeftToes  -2.75829e-010 5.07641e-011 -5.51782e-011
464
root  12.1986 39.6454 -5.82907 -37.1616 -74.2954 37.6879
RightUpLeg  -15.194 -11.4563 -28.3745
RightLeg  29.4468 -24.8048 -14.5649
RightFoot  25.5367 -6.93504 21.1556
RightToes  -5.28226e-011 1.30204e-014 -6.03759e-014
Spine  30.3724 7.18366 18.3574
Spine1  -12.118 13.3767 -25.2096
HEad  -2.95072 -36.5284 -4.45315
LeftShoulder1  -0.286657 5.38262 -8.43058
LeftArm  -9.30013 25.9558 -60.066
LeftForeArm  -31.8453 -34.8063 -9.36003
LeftHand  0.208923 6.11931 31.6761
RightShoulder  1.19167 1.90734 15.1757
RightArm  -20.0928 -30.8579 25.5957
RightForeArm  -41.0355 15.6713 6.71743
RightHand  -1.63816 1.23262 -28.363
LeftUpLeg  -19.1868 18.714 22.275
LeftLeg  16.5241 -2.6194 -0.512578
LeftFoot  27.6778 13.0513 -36.305
LeftToes  -2.75829e-010 5.07641e-011 -5.51782e-011
465
root  12.1917 38.564 -6.4054 -30.2959 -75.7704 32.202
RightUpLeg  -17.9353 -7.44018 -24.1734
RightLeg  35.0962 -27.8903 -19.64
RightFoot  13.2574 -5.08723 23.5258
RightToes  -5.28226e-011 1.30204e-014 -6.03759e-014
Spine  29.3355 3.94867 9.35825
Spine1  -15.0653 6.58566 -12.595
HEad  -5.99737 -20.249 -7.40513
LeftShoulder1  0.732118 0.0976485 -14.0886
LeftArm  -20.0558 34.5573 -52.763
LeftForeArm  -39.9928 -32.2517 -8.92025
LeftHand  0.108599 5.77855 30.5636
RightShoulder  0.670961 -0.150244 13.2649
RightArm  -24.5858 -14.8143 33.1115
RightForeArm  -39.8199 18.7201 6.60596
RightHand  -1.90301 1.54819 -31.2939
LeftUpLeg  -17.6513 19.0004 26.2519
LeftLeg  13.6668 -5.63327 -1.02374
LeftFoot  29.7132 13.1763 -34.8213
LeftToes  -2.75829e-010 5.07641e-011 -5.51782e-011
466
root  12.2227 37.2918 -6.83103 -16.1926 -72.25 17.7654
RightUpLeg  -17.3835 -9.49183 -21.8705
RightLeg  40.9875 -26.1373 -22.4429
RightFoot  2.88642 -3.40438 26.9633
RightToes  -5.28226e-011 1.30204e-014 -6.03759e-014
Spine  28.8173 -0.788625 -2.85334
Spine1  -13.7296 -2.23421 7.93066
HEad  -11.5206 -2.6089 -9.15968
LeftShoulder1  1.84637 -3.13087 -21.7349
LeftArm  -14.8776 38.8811 -41.4747
LeftForeArm  -48.0139 -26.1239 -7.54484
LeftHand  0.101995 5.76383 29.4865
RightShoulder  0.673118 -0.351457 14.4096
RightArm  -33.5842 -3.14495 43.0165
RightForeArm  -31.8698 28.3838 7.61603
RightHand  -2.12551 1.71793 -34.0234
LeftUpLeg  -19.1927 14.857 28.9979
LeftLeg  13.8573 -8.89694 -1.8433
LeftFoot  33.3412 13.9581 -33.7056
LeftToes  -2.75829e-010 5.07641e-011 -5.51782e-011
467
root  12.4484 35.9391 -6.92407 -10.5686 -65.8885 10.5922
RightUpLeg  -16.564 -16.4183 -23.3158
RightLeg  47.6046 -19.3387 -21.4259
RightFoot  -3.5696 -2.12263 30.0642
RightToes  -5.28226e-011 1.30204e-014 -6.03759e-014
Spine  30.3014 -3.79656 -9.70983
Spine1  -9.49175 -8.44903 19.4507
HEad  -16.5699 4.01917 -7.33618
LeftShoulder1  2.17232 -3.67521 -24.0336
LeftArm  -3.62998 35.4133 -34.3598
LeftForeArm  -49.7634 -22.8677 -7.09897
LeftHand  0.496692 7.16177 31.4629
RightShoulder  1.13755 1.16521 17.888
RightArm  -38.8735 -7.59834 47.9765
RightForeArm  -26.3761 46.7689 13.9022
RightHand  -1.92632 0.932339 -34.5461
LeftUpLeg  -22.9152 8.09881 29.1885
LeftLeg  18.4464 -7.14401 -2.32092
LeftFoot  33.3183 14.0022 -33.8325
LeftToes  -2.75829e-010 5.07641e-011 -5.51782e-011
468
root  12.8478 34.5789 -6.68301 -11.3448 -61.5006 9.90366
RightUpLeg  -16.597 -20.8669 -27.8875
RightLeg  53.8923 -12.2597 -17.7645
RightFoot  -7.44614 -1.15233 31.4894
RightToes  -5.28226e-011 1.30204e-014 -6.03759e-014
Spine  31.98 -3.2659 -6.19264
Spine1  -7.4209 -7.08009 14.4789
HEad  -19.3985 -5.45803 -2.16707
LeftShoulder1  1.4311 -1.87621 -19.9802
LeftArm  -4.2149 23.1064 -35.4941
LeftForeArm  -44.1259 -23.3596 -7.20335
LeftHand  0.616869 7.47265 33.1005
RightShoulder  1.53338 2.30659 20.0644
RightArm  -42.0252 -24.3501 45.798
RightForeArm  -25.3647 59.5982 21.0614
RightHand  -1.35862 -0.621633 -32.3721
LeftUpLeg  -27.5085 2.46966 26.9539
LeftLeg  27.81 -0.746529 0.0346686
LeftFoot  25.7249 11.3227 -33.3872
LeftToes  -2.75829e-010 5.07641e-011 -5.51782e-011
469
root  13.3241 33.2643 -6.01924 -14.4599 -61.1252 11.7419
RightUpLeg  -17.0138 -19.3993 -32.8913
RightLeg  57.843 -7.57252 -13.2495
RightFoot  -10.7079 -0.255669 32.0414
RightToes  -5.28226e-011 1.30204e-014 -6.03759e-014
Spine  33.5958 -0.953028 5.01174
Spine1  -7.41656 0.261157 -1.37724
HEad  -21.4311 -23.6344 3.29094
LeftShoulder1  0.743009 0.416962 -17.6262
LeftArm  -9.62835 7.06549 -40.8162
LeftForeArm  -38.5423 -29.321 -8.0449
LeftHand  0.310267 6.42413 33.1283
RightShoulder  1.82667 2.9507 22.0765
RightArm  -41.068 -40.6153 37.3465
RightForeArm  -30.8133 54.3521 18.6234
RightHand  -1.17798 -0.737018 -29.1056
LeftUpLeg  -31.1807 -2.08191 24.6145
LeftLeg  39.6035 5.62376 5.34204
LeftFoot  14.0193 7.41085 -32.5333
LeftToes  -2.75829e-010 5.07641e-011 -5.51782e-011
470
root  13.8169 31.9999 -5.02666 -19.8456 -64.659 15.4772
RightUpLeg  -18.6347 -14.3554 -36.7434
RightLeg  59.982 -4.52104 -8.91327
RightFoot  -13.4175 0.514476 32.6388
RightToes  -5.28226e-011 1.30204e-014 -6.03759e-014
Spine  35.5819 1.36634 15.0398
Spine1  -5.19732 7.96531 -16.2323
HEad  -23.8425 -36.8767 6.70484
LeftShoulder1  0.71097 0.69434 -18.7317
LeftArm  -11.1889 -3.11112 -45.7785
LeftForeArm  -36.407 -37.067 -10.2016
LeftHand  0.317721 6.4612 32.8701
RightShoulder  2.03571 3.45428 23.123
RightArm  -29.1626 -44.9662 26.0241
RightForeArm  -41.4229 34.1638 9.51625
RightHand  -1.39657 0.398687 -27.6665
LeftUpLeg  -32.5334 -3.77881 23.5533
LeftLeg  50.6986 6.69477 8.9709
LeftFoot  4.70373 4.76661 -33.2803
LeftToes  -2.75829e-010 5.07641e-011 -5.51782e-011
